<svg fill="none" height="800" viewBox="0 0 800 800" width="800" xmlns="http://www.w3.org/2000/svg" xmlns:xlink="http://www.w3.org/1999/xlink"><clipPath id="a"><path d="m0 0h800v800h-800z"/></clipPath><g clip-path="url(#a)"><path d="m527.777 443.336-17.254-64.397c-20.143-75.168-30.214-112.752-53.044-137.129-18.026-19.248-41.356-32.717-67.038-38.705-32.526-7.584-70.112 2.488-145.279 22.628-75.17 20.142-112.757 30.214-137.131 53.043-19.248 18.028-32.7177 41.358-38.7053 67.039-6.4933 27.848-.0448 59.405 14.5858 115.084 2.4571 9.35 5.1447 19.381 8.0407 30.189l17.2568 64.402c20.141 75.169 30.211 112.753 53.043 137.13 18.027 19.248 41.357 32.718 67.039 38.706 32.525 7.583 70.11-2.489 145.28-22.629 67.753-18.155 104.97-28.126 129.505-46.637 2.688-2.025 5.22-4.153 7.625-6.408 19.246-18.024 32.715-41.355 38.704-67.036 7.583-32.526-2.485-70.111-22.628-145.28z" fill="#def"/><g stroke="#1c274c" stroke-width="50"><path d="m90.9413 260.53c15.6957-14.7 34.7487-24.356 58.1137-32.796 20.187-7.293 45.217-14.219 76.059-22.508l13.577-3.641 13.579-3.635c30.854-8.242 55.992-14.758 77.122-18.537 24.454-4.373 45.782-5.538 66.726-.655h.001c30.496 7.111 58.2 23.105 79.606 45.963 14.701 15.696 24.356 34.748 32.797 58.113 8.334 23.071 16.189 52.466 26.149 89.634l.001.001 17.253 64.397c9.96 37.169 17.855 66.553 22.173 90.701 4.372 24.455 5.536 45.782.654 66.725l-.001.001c-7.11 30.493-23.102 58.194-45.953 79.598-3.068 2.876-6.283 5.576-9.666 8.126-.001.001-.002.002-.004.003-.002.002-.004.005-.007.006h-.001c-15.358 11.583-33.676 19.731-55.551 27.158-21.794 7.4-48.955 14.665-82.527 23.661l-.001.001c-37.169 9.958-66.554 17.853-90.701 22.171-24.454 4.373-45.782 5.539-66.725.656-30.022-7-57.337-22.608-78.602-44.897l-1.008-1.067c-14.701-15.696-24.356-34.749-32.796-58.113-8.334-23.071-16.1886-52.466-26.1478-89.635l-17.2572-64.402-4.1921-15.669c-1.347-5.05-2.6419-9.928-3.8796-14.638-14.2559-54.253-22.9111-92.128-14.7534-127.114 7.1104-30.497 23.1063-58.2 45.9629-79.607z" stroke-opacity=".5"/><path d="m677.053 421.577 17.257-64.397c20.14-75.169 30.21-112.753 22.627-145.279-5.987-25.682-19.457-49.012-38.704-67.039-24.376-22.83-61.963-32.901-137.13-53.0426-75.17-20.1417-112.756-30.2123-145.28-22.6283-25.683 5.988-49.013 19.4573-67.039 38.7049-19.548 20.87-29.741 51.423-44.91 106.958-2.548 9.326-5.236 19.357-8.132 30.165l-17.256 64.402c-20.142 75.169-30.212 112.752-22.628 145.279 5.988 25.683 19.457 49.013 38.704 67.04 24.376 22.83 61.961 32.9 137.131 53.043 67.754 18.154 104.97 28.127 135.474 24.364 3.34-.41 6.596-.987 9.806-1.737 25.68-5.987 49.01-19.457 67.037-38.703 22.83-24.377 32.903-61.96 53.043-137.13z" fill="#def"/><path d="m392.563 333.333 160.987 43.137" stroke-linecap="round"/><path d="m366.667 429.917 96.593 25.88" opacity=".5" stroke-linecap="round"/></g></g></svg>